<svg width="45" height="45" viewBox="0 0 45 45" fill="none" xmlns="http://www.w3.org/2000/svg">
<path d="M44.5624 18.0934H42.75V18H22.5V27H35.2159C33.3607 32.2391 28.3759 36 22.5 36C15.0446 36 9 29.9554 9 22.5C9 15.0446 15.0446 9 22.5 9C25.9414 9 29.0722 10.2982 31.4561 12.4189L37.8202 6.05475C33.8017 2.30962 28.4265 0 22.5 0C10.0744 0 0 10.0744 0 22.5C0 34.9256 10.0744 45 22.5 45C34.9256 45 45 34.9256 45 22.5C45 20.9914 44.8447 19.5187 44.5624 18.0934Z" fill="#FFC107"/>
<path d="M2.59424 12.0274L9.98661 17.4487C11.9869 12.4965 16.8311 9 22.5 9C25.9414 9 29.0722 10.2982 31.4561 12.4189L37.8202 6.05475C33.8017 2.30962 28.4265 0 22.5 0C13.8577 0 6.36299 4.87912 2.59424 12.0274Z" fill="#FF3D00"/>
<path d="M22.4999 44.9998C28.3116 44.9998 33.5924 42.7757 37.585 39.1588L30.6212 33.266C28.3622 34.9772 25.5542 35.9998 22.4999 35.9998C16.6476 35.9998 11.6785 32.2682 9.80649 27.0605L2.46924 32.7137C6.19299 40.0003 13.7552 44.9998 22.4999 44.9998Z" fill="#4CAF50"/>
<path d="M44.5624 18.0934H42.75V18H22.5V27H35.2159C34.3249 29.5166 32.706 31.6867 30.618 33.2674C30.6191 33.2662 30.6202 33.2662 30.6214 33.2651L37.5851 39.1579C37.0924 39.6056 45 33.75 45 22.5C45 20.9914 44.8447 19.5187 44.5624 18.0934Z" fill="#1976D2"/>
</svg>
